# xmcd
#
# Track frame offsets:
#	150
#	16345
#	30523
#	44405
#	65540
#	83345
#	97743
#	115075
#	130733
#	143250
#
# Disc length: 2112 seconds
#
# Revision: 3
# Processed by: cddbd v1.5.2PL0 Copyright (c) Steve Scherf et al.
# Submitted via: audiograbber 1.83.01
#
DISCID=6a083e0a
DTITLE=Yuri - Un Corazon Herido
DYEAR=1986
DGENRE=Latin
TTITLE0=Un Corazon Herido
TTITLE1=Cuidate Bien
TTITLE2=Pesado
TTITLE3=Este Amor
TTITLE4=Es Ella Mas Que Yo
TTITLE5=Hoy Me He Vuelto A Enamorar
TTITLE6=No Habra
TTITLE7=Mañana
TTITLE8=Mama Dame
TTITLE9=Vivir Sin Ti
EXTD=
EXTT0=
EXTT1=
EXTT2=
EXTT3=
EXTT4=
EXTT5=
EXTT6=
EXTT7=
EXTT8=
EXTT9=
PLAYORDER=
